<svg width="310" height="1365" xmlns="http://www.w3.org/2000/svg">
  <path d="m3.51,171.62l0,-9.64c4.32,-21.34 12,-32.33 25.46,-25.58c-2.35,-10.3 -1.53,-26.06 5.79,-25.96c19.18,0.25 29.95,-3.14 40.24,-13.16c-4.5,-66.43 51.39,-54.26 79.61,-93.78l0,0c28.22,39.52 84.1,27.34 79.61,93.78c10.29,10.02 21.06,13.41 40.24,13.16c7.32,-0.1 8.13,15.66 5.79,25.96c13.46,-6.75 21.14,4.24 25.46,25.58l0,9.64l0.01,0l0,1015.21l-0.01,0l0,3.13c-4.32,21.34 -12,32.33 -25.46,25.58c2.35,10.3 1.53,26.06 -5.79,25.96c-19.18,-0.25 -29.95,3.14 -40.24,13.16c4.5,66.43 -51.39,54.26 -79.61,93.78l0,0c-28.22,-39.52 -84.1,-27.34 -79.61,-93.78c-10.29,-10.02 -21.06,-13.41 -40.24,-13.16c-7.32,0.1 -8.13,-15.66 -5.79,-25.96c-13.46,6.75 -21.14,-4.24 -25.46,-25.58l0,-3.13l-0.01,0l0,-1004.21l0.01,0l0,-11z" stroke="#fff" stroke-width="8" fill="none"/>
</svg>